<svg width="31" height="31" viewBox="0 0 31 31" fill="none" xmlns="http://www.w3.org/2000/svg">
<g clip-path="url(#clip0_32_38035)">
<path d="M15.5 -6.77527e-07C13.4645 -5.88552e-07 11.449 0.400918 9.56841 1.17987C7.68786 1.95881 5.97915 3.10054 4.53984 4.53984C3.10054 5.97915 1.95881 7.68786 1.17987 9.56841C0.400918 11.449 -8.55475e-07 13.4645 -6.77526e-07 15.5C-4.99578e-07 17.5355 0.400919 19.551 1.17987 21.4316C1.95882 23.3121 3.10054 25.0208 4.53985 26.4602C5.97915 27.8995 7.68786 29.0412 9.56841 29.8201C11.449 30.5991 13.4645 31 15.5 31L15.5 15.5L15.5 -6.77527e-07Z" fill="#6889FF"/>
<path fillRule="evenodd" clipRule="evenodd" d="M29.9512 8.50525C30.6436 10.1768 31 11.9685 31 13.7778H17.2222L17.2222 0C19.0316 0 20.8232 0.356373 22.4948 1.04877C24.1664 1.74117 25.6852 2.75603 26.9646 4.03542C28.244 5.3148 29.2588 6.83365 29.9512 8.50525ZM21.5278 12.0556C22.9545 12.0556 24.1111 10.899 24.1111 9.47222C24.1111 8.04549 22.9545 6.88889 21.5278 6.88889C20.101 6.88889 18.9445 8.04549 18.9445 9.47222C18.9445 10.899 20.101 12.0556 21.5278 12.0556Z" fill="#7000FF"/>
</g>
<defs>
<clipPath id="clip0_32_38035">
<rect width="31" height="31" fill="white"/>
</clipPath>
</defs>
</svg>
